<svg xmlns="http://www.w3.org/2000/svg" version="1.1" xmlns:xlink="http://www.w3.org/1999/xlink" width="32" height="32"><svg width="32" height="32" viewBox="0 0 32 32" fill="none" xmlns="http://www.w3.org/2000/svg">
<rect width="32" height="32" rx="2" fill="#F4B541"></rect>
<path d="M10.1807 24.0039H5.00195L6.60254 19.0771H11.7812L10.1807 24.0039ZM16.0068 24.0039H10.8271L12.4277 19.0771H17.6074L16.0068 24.0039ZM11.9814 18.457H6.80176L8.40234 13.5312H13.582L11.9814 18.457ZM17.8076 18.457H12.6289L14.2295 13.5312H19.4082L17.8076 18.457ZM23.6357 18.457H18.4561L20.0566 13.5312H25.2363L23.6357 18.457ZM19.6104 12.9258H14.4307L16.0312 8H21.2109L19.6104 12.9258ZM25.4346 12.9258H20.2559L21.8564 8H27.0352L25.4346 12.9258Z" fill="black"></path>
</svg><style>@media (prefers-color-scheme: light) { :root { filter: none; } }
@media (prefers-color-scheme: dark) { :root { filter: none; } }
</style></svg>