<svg width="920" height="128" viewBox="0 0 920 128" fill="none" xmlns="http://www.w3.org/2000/svg">
<g clip-path="url(#clip0_272_38)">
<path d="M40.0671 0L0 128H879.935L920 0H40.0671Z" fill="white"/>
<path d="M251.52 120.665H134.588L170.064 7.33478H286.994L251.52 120.665Z" fill="black"/>
<path d="M212.836 101.233L203.626 63.1632L200.462 48.6495C199.437 52.5559 198.542 55.3481 197.826 57.581C196.652 61.6006 195.255 65.9532 193.754 70.6431L183.95 101.233H168.43L192.294 26.7668H209.964L218.929 63.8314C220.086 69.4136 220.759 73.32 221.803 78.9022C222.544 75.8881 223.187 73.8772 223.902 71.6464L225.576 66.0642L227.293 60.7062L238.169 26.7668H253.689L229.826 101.233H212.836Z" fill="white"/>
<path d="M376.124 120.665H259.192L294.668 7.33478H411.598L376.124 120.665Z" fill="black"/>
<path d="M315.386 86.2712L305.835 101.231H287.37L337.627 26.7647H358.81L358.962 101.231H339.705L340.42 86.2712H315.386ZM342.494 43.4024L323.979 72.5409H341.084L342.494 43.4024Z" fill="white"/>
<path d="M500.729 120.665H383.797L419.273 7.33478H536.203L500.729 120.665Z" fill="black"/>
<path d="M493.983 60.0359L480.782 101.231H470.588L471.25 91.7402C463.462 99.7795 456.003 102.905 445.016 102.905C423.606 102.905 415.154 88.2799 422.775 64.4995C430.431 40.6081 449.904 25.0911 472.106 25.0911C488.645 25.0911 498.135 34.3578 496.853 49.3176L480.105 50.3231C480.511 43.4024 475.945 39.2718 467.675 39.2718C455.441 39.2718 444.917 48.4253 440.123 63.3873C434.971 79.4637 439.259 89.0655 451.606 89.0655C461.234 89.0655 470.38 83.1481 475.085 73.7705H456.62L461.021 60.038H493.985L493.983 60.0359Z" fill="white"/>
<path d="M625.334 120.665H508.402L543.878 7.33478H660.808L625.334 120.665Z" fill="black"/>
<path d="M558.461 101.233H541.808L565.672 26.7668H598.637C608.378 26.7668 613.422 27.9943 616.916 31.2326C620.486 34.5819 621.304 40.1641 619.158 46.8627C616.26 55.9053 610.322 61.7116 600.823 64.8368C607.548 67.1828 608.902 71.0893 606.32 80.9131L603.488 91.5182C602.254 96.4301 602.284 98.1059 603.435 101.231H586.783C585.245 99.6685 585.036 98.552 586.027 94.7565L588.604 84.5976C590.857 75.444 588.066 71.4244 579.345 71.4244H568.017L558.465 101.233H558.461ZM588.888 58.2492C595.117 58.2492 599.519 55.124 601.272 49.6528C603.025 44.1816 600.629 41.0564 594.398 41.0564H577.746L572.236 58.2492H588.888Z" fill="white"/>
<path d="M874.543 120.665H757.611L793.087 7.33478H910.017L874.543 120.665Z" fill="black"/>
<path d="M813.997 101.233L816.276 61.6006C816.555 58.2513 816.628 55.9074 816.675 54.3448C816.861 52.0009 816.891 51.5548 816.891 49.4329C816.259 52.1119 815.65 54.0097 815.257 55.2392L813.081 62.384L800.629 101.235H785.109L808.973 26.7689H832.874L830.017 65.7312C829.629 71.5376 828.909 77.6769 828.24 82.5888C829.046 81.1372 829.409 80.356 829.445 80.2428L832.229 75.4419C832.885 74.1013 833.876 72.4277 834.971 70.4169C836.291 68.0708 837.609 65.727 837.679 65.5049L859.95 26.7647H883.625L859.762 101.231H844.243L856.695 62.3798L859.098 55.235C859.563 53.7834 860.099 52.1098 861.184 49.4286C858.508 53.8944 856.749 56.9086 856.087 57.914C854.763 59.9227 853.958 61.3743 853.808 61.4875L830.762 101.233H813.997Z" fill="white"/>
<path d="M749.938 120.665H633.006L668.482 7.33478H785.412L749.938 120.665Z" fill="black"/>
<path d="M689.2 86.2712L679.649 101.231H661.183L711.441 26.7647H732.624L732.776 101.231H713.519L714.234 86.2712H689.2ZM716.305 43.4024L697.791 72.5409H714.896L716.305 43.4024Z" fill="white"/>
<path d="M126.915 120.665H9.98315L45.4591 7.33478H162.389L126.915 120.665Z" fill="black"/>
<path d="M66.1771 86.2712L56.6253 101.231H38.1602L88.4176 26.7668H109.601L109.753 101.233H90.4954L91.2107 86.2733L66.1771 86.2712ZM93.2842 43.4024L74.77 72.5409H91.8749L93.2842 43.4024Z" fill="white"/>
</g>
<defs>
<clipPath id="clip0_272_38">
<rect width="920" height="128" fill="white"/>
</clipPath>
</defs>
</svg>
